<?xml version="1.0" encoding="UTF-8"?>
<svg xmlns="http://www.w3.org/2000/svg" version="1.1" viewBox="0 0 90 90">
  <defs>
    <style>
      .cls-1 {
        fill: #006cff;
      }

      .cls-2 {
        isolation: isolate;
        opacity: .2;
      }

      .cls-3 {
        fill: #d9d9d9;
      }

      .cls-4 {
        fill: #ffd853;
      }

      .cls-5 {
        fill: #ecf0f4;
      }

      .cls-6 {
        fill: #f56b62;
      }

      .cls-7 {
        fill: #3cdad6;
      }
    </style>
  </defs>
  <!-- Generator: Adobe Illustrator 28.7.0, SVG Export Plug-In . SVG Version: 1.2.0 Build 136)  -->
  <g>
    <g id="Layer_1">
      <g>
        <path class="cls-2" d="M72.4,17.6l2.1-.3c0,.5-1,.9-1.4,1l-56.7,7c-.5,0-.9-.3-1-.8v-.4s49.1-5.6,49.1-5.6l8-.9Z"/>
        <rect class="cls-3" x="26.3" y="31.3" width="36.3" height="36.3"/>
        <path class="cls-3" d="M15,27.8c0-.7.6-1.3,1.3-1.3h59c.7,0,1.3.6,1.3,1.3v6.6H15v-6.6Z"/>
        <path class="cls-1" d="M14.7,34.4h61.8v29.3c0,2.4-2,4.4-4.4,4.4H19.1c-2.4,0-4.4-2-4.4-4.4v-29.3Z"/>
        <path class="cls-2" d="M15,26.9h60.7c.5,0,.9.4.9.9v7.9H15v-8.7Z"/>
        <path class="cls-5" d="M51.7,26.5h12.2l5,7.9h-12.2l-5-7.9Z"/>
        <path class="cls-5" d="M72.2,26.5h3.5c.5,0,.9.4.9.9v7l-4.4-7.9Z"/>
        <path class="cls-6" d="M63.9,26.5h8.3l4.4,7.9h-7.6l-5-7.9Z"/>
        <path class="cls-6" d="M39.4,26.5h12.2l5,7.9h-12.2l-5-7.9Z"/>
        <path class="cls-5" d="M27.2,26.5h12.2l5,7.9h-12.2l-5-7.9Z"/>
        <path class="cls-6" d="M15,26.5h12.2l5,7.9h-12.2l-5-7.9Z"/>
        <path class="cls-2" d="M15,23.9c0-.5.4-.9.9-.9h2.2c5.1,0,9.2,4.1,9.2,9.2v2.2h-11.4c-.5,0-.9-.4-.9-.9v-9.6Z"/>
        <path class="cls-1" d="M19.8,68h14.4l-12.9,12.2c-.6.5-1.5.1-1.5-.6v-11.5Z"/>
        <path class="cls-4" d="M40.6,56.6v-10.4c0-1,1.1-1.7,2-1.2l9.7,5.2c.9.5.9,1.9,0,2.3l-9.7,5.2c-.9.5-2-.2-2-1.2Z"/>
        <path class="cls-5" d="M73.9,9.7c0-.4-.4-.6-.7-.6l-1.6.2,2.8,3.4-.4-3.1Z"/>
        <path class="cls-6" d="M74.4,13.2v-.4c0,0-2.8-3.4-2.8-3.4h-.2s-12.6,1.7-12.6,1.7h-.3s5.4,6.6,5.4,6.6l.8,1,9.7-1.3c.4,0,.6-.4.6-.7l-.5-3.4Z"/>
        <polygon class="cls-5" points="63.8 17.7 58.4 11.1 45.6 12.8 45.6 12.8 51.4 20.4 51.4 20.4 64.5 18.6 64.6 18.6 63.8 17.7"/>
        <polygon class="cls-5" points="19.4 16.4 25.6 23.9 38.3 22.2 32.5 14.6 19.4 16.4"/>
        <polygon class="cls-6" points="45.6 12.8 32.5 14.6 32.5 14.6 38.3 22.2 38.6 22.1 51.4 20.4 45.6 12.8"/>
        <path class="cls-6" d="M19.4,16.4h0s-4.7.6-4.7.6c-.4,0-.6.4-.6.7l.9,6.9c0,.4.4.6.7.6l9.6-1.3h0s-6.2-7.6-6.2-7.6Z"/>
        <path class="cls-7" d="M14.1,23.9c0-.5.4-.9.9-.9h2.2c5.1,0,9.2,4.1,9.2,9.2v2.6h-11.4c-.5,0-.9-.4-.9-.9v-10Z"/>
      </g>
    </g>
  </g>
</svg>