<?xml version="1.0" encoding="UTF-8"?>
<svg id="Layer_1" data-name="Layer 1" xmlns="http://www.w3.org/2000/svg" viewBox="0 0 250 250">
  <defs>
    <style>
      .cls-1 {
        fill: #d6f1da;
      }

      .cls-2 {
        fill: #fcc;
      }

      .cls-3 {
        fill: #92bbff;
      }

      .cls-4 {
        fill: #d4e4ff;
      }

      .cls-5 {
        fill: #d8f8f7;
      }

      .cls-6 {
        fill: #fcc980;
      }

      .cls-7 {
        fill: #feeacc;
      }

      .cls-8 {
        fill: #fff;
      }

      .cls-9 {
        opacity: .3;
      }

      .cls-10 {
        fill: #f99;
      }

      .cls-11 {
        fill: #98dba1;
      }
    </style>
  </defs>
  <g>
    <path class="cls-11" d="M136,94v-14c0-4.4111328-3.5888672-8-8-8h-35.894043c-.5288086,0-1.0366211.2099609-1.4116211.5830078l-18.105957,18.0341797c-.3764648.375-.5883789.8847656-.5883789,1.4169922v55.9658203c0,4.4111328,3.5888672,8,8,8h15.5v-4h-15.5c-2.2055664,0-4-1.7939453-4-4v-53.9658203h16.105957c1.1044922,0,2-.8955078,2-2v-16.0341797h33.894043c2.2055664,0,4,1.7939453,4,4v14h4ZM78.8422852,90.0341797l11.2636719-11.2192383v11.2192383h-11.2636719Z"/>
    <path class="cls-6" d="M155.5,113c1.1044922,0,2-.8955078,2-2v-11c0-4.4111328-3.5888672-8-8-8h-35.894043c-.5288086,0-1.0366211.2099609-1.4116211.5830078l-18.105957,18.0341797c-.3764648.375-.5883789.8847656-.5883789,1.4169922v55.9658203c0,4.4111328,3.5888672,8,8,8h48c4.4111328,0,8-3.5888672,8-8v-3.0078125c0-1.1044922-.8955078-2-2-2s-2,.8955078-2,2v3.0078125c0,2.2060547-1.7944336,4-4,4h-48c-2.2055664,0-4-1.7939453-4-4v-53.9658203h16.105957c1.1044922,0,2-.8955078,2-2v-16.0341797h33.894043c2.2055664,0,4,1.7939453,4,4v11c0,1.1044922.8955078,2,2,2ZM100.3422852,110.0341797l11.2636719-11.2192383v11.2192383h-11.2636719Z"/>
    <g>
      <path class="cls-10" d="M139.6250447,121.4747989c0,1.7615939-.5238011,6.2856131-1.142861,12.9522615l-.6190599,6.6192235h-1.7142507l-.6190599-6.6192235c-.6190599-6.6666485-1.142861-11.1906676-1.142861-12.9522615,0-2.0477793,1.0000136-2.9050273,2.6190872-2.9050273,1.6189918,0,2.6190054.857248,2.6190054,2.9050273Z"/>
      <path class="cls-10" d="M134.0059984,146.8079596c0-1.6189918,1.3333788-3.0476294,3.0000409-3.0476294s2.9999591,1.4286376,2.9999591,3.0476294-1.333297,3.0002044-2.9999591,3.0002044-3.0000409-1.3812126-3.0000409-3.0002044Z"/>
    </g>
    <line class="cls-8" x1="168.7129001" y1="168.7128315" x2="174" y2="174"/>
  </g>
  <g class="cls-9">
    <path class="cls-5" d="M157.499939,105.8739014h39.8276367c2.7255249,0,4.9349976-2.2094727,4.9349976-4.9350586s-2.2094727-4.9350586-4.9349976-4.9350586h-40.9077759c.6827393,1.1774902,1.0801392,2.5400391,1.0801392,3.9963379v5.8737793Z"/>
    <path class="cls-4" d="M135.999939,80.0001221v2.84375h45.147522c2.7255249,0,4.9349976-2.2094727,4.9349976-4.9350586,0-2.7253418-2.2094727-4.9348145-4.9349976-4.9348145h-49.3261719c2.4873047,1.3581543,4.1786499,3.9980469,4.1786499,7.026123Z"/>
    <path class="cls-4" d="M180.1725464,123.9349365c0,2.7255859,2.2094727,4.9350586,4.9349976,4.9350586h17.3800049c2.7255249,0,4.9349976-2.2094727,4.9349976-4.9350586,0-2.7253418-2.2094727-4.9348145-4.9349976-4.9348145h-17.3800049c-2.7255249,0-4.9349976,2.2094727-4.9349976,4.9348145Z"/>
    <path class="cls-4" d="M227.2075806,190.130127h-3.460083c-2.7255249,0-4.9349976,2.2094727-4.9349976,4.9350586,0,2.7253418,2.2094727,4.9348145,4.9349976,4.9348145h3.460083c2.7255249,0,4.9349976-2.2094727,4.9349976-4.9348145,0-2.7255859-2.2094727-4.9350586-4.9349976-4.9350586Z"/>
    <path class="cls-2" d="M138.7675781,59.8701172h8.7199707c2.7255249,0,4.9349976-2.2094727,4.9349976-4.9350586s-2.2094727-4.9350586-4.9349976-4.9350586h-8.7199707c-2.7255249,0-4.9349976,2.2094727-4.9349976,4.9350586s2.2094727,4.9350586,4.9349976,4.9350586Z"/>
    <path class="cls-5" d="M98.1628418,59.8701172h21.4647217c2.7255249,0,4.9349976-2.2094727,4.9349976-4.9350586s-2.2094727-4.9350586-4.9349976-4.9350586h-21.4647217c-2.7255249,0-4.9349976,2.2094727-4.9349976,4.9350586s2.2094727,4.9350586,4.9349976,4.9350586Z"/>
    <path class="cls-7" d="M71.999939,141.2108154c-2.6781616-1.3979492-4.2738037-4.5864258-3.1929321-7.9782715.5249634-1.6472168,1.7076416-2.9394531,3.1929321-3.6906738v-10.5869141h-31.2120361c-2.7227783,0-4.9299927,2.2072754-4.9299927,4.9301758,0,2.7226562,2.2072144,4.9299316,4.9299927,4.9299316h10.1094971c4.3266602-.001709,7.6780396,4.1794434,6.2304077,8.7224121-.850769,2.6699219-3.4232788,4.4174805-6.2255859,4.4174805h-28.1148071c-2.7227783,0-4.9299927,2.2072754-4.9299927,4.9301758,0,2.7226562,2.2072144,4.9299316,4.9299927,4.9299316h50.1824341c-.6182251-1.1347656-.9699097-2.4345703-.9699097-3.8149414v-6.7893066Z"/>
    <path class="cls-1" d="M206.9841919,190.1303711h-40.1414795c-3.6790161-.0031738-6.6494751-3.0344238-6.5528564-6.7355957.0941162-3.6062012,3.2542114-6.3845215,6.8616333-6.3845215h4.2427979c-.0730591-.0632324-.1535645-.112793-.2229614-.1821289l-5.2871094-5.2871094c-1.0443115-1.0439453-1.3737183-2.5185547-1.0216675-3.8505859l-.550293-.550293h-6.8123169v.8598633c0,4.4111328-3.5888672,8-8,8h-33.336853c.8295898.6325684,1.8639526,1.0102539,2.9877319,1.0102539h24.9043579c3.6074219,0,6.7675171,2.7783203,6.8616333,6.3845215.0966187,3.7011719-2.8738403,6.7324219-6.5528564,6.7355957h-28.9319458c-2.3862915,0-4.5888672,1.5959473-5.046875,3.9377441-.6184082,3.1625977,1.7860718,5.9318848,4.8373413,5.9318848h91.5516968c2.3865356,0,4.5894165-1.5964355,5.0473633-3.9387207.6183472-3.1623535-1.7861328-5.9309082-4.8373413-5.9309082Z"/>
    <path class="cls-1" d="M176.8285522,176.8282471c-.069397.0693359-.1499023.1188965-.2229614.1821289h50.0969849c2.3864136,0,4.5891724-1.5961914,5.0473633-3.9382324.6187134-3.1625977-1.7858887-5.9318848-4.8374023-5.9318848h-54.1157227l4.0317383,4.0317383c1.5620117,1.5615234,1.5620117,4.0947266,0,5.65625Z"/>
    <polygon class="cls-7" points="171.2225342 61.6600342 175.5325317 64.2401123 172.9625854 59.9200439 175.5325317 55.6099854 171.2225342 58.1900635 166.9125366 55.6099854 169.4825439 59.9200439 166.9125366 64.2401123 171.2225342 61.6600342"/>
    <polygon class="cls-5" points="55.9325562 101.9901123 58.9725342 103.8001709 57.1625366 100.7601318 58.9725342 97.7200928 55.9325562 99.539917 52.8925781 97.7200928 54.7125854 100.7601318 52.8925781 103.8001709 55.9325562 101.9901123"/>
    <path class="cls-2" d="M75.9425659,192.6900635l-.0200195.0100098-3.1799927-1,1-3.1799316c.1900635-.5185547-.0762939-1.0930176-.5948486-1.2832031-.0279541-.0102539-.0563965-.0192871-.085144-.0268555-.5203857-.1850586-1.0922241.0869141-1.2772217.6071777-.0085449.0239258-.0161133.0483398-.0227661.0727539l-1,3.1801758-3.1900024-1c-.5203857-.1850586-1.0922241.0866699-1.2772217.6069336-.0085449.0241699-.0161133.0483398-.0228271.072998-.1864014.5197754.0839844,1.0922852.6038208,1.2788086.0218506.0078125.0438843.0148926.0662231.0212402l3.1799927,1-1,3.1899414c-.1740112.5522461.1326904,1.1411133.6849976,1.3149414.5522461.1738281,1.1409912-.1328125,1.3150024-.6850586l1-3.1799316,3.1900024,1c.5522461.1740723,1.1409912-.1328125,1.3150024-.6850586.1739502-.5522461-.1327515-1.1408691-.6849976-1.3149414Z"/>
    <path class="cls-5" d="M191.9025879,152.5701904c.3605957,0,.654541-.2895508.6599731-.6501465v-2.0998535h2.1000366c.3605957-.0056152.6500244-.2995605.6499634-.6601562,0-.3588867-.2910156-.6499023-.6499634-.6499023h-2.1000366v-2.1000977c-.0054321-.3605957-.2993774-.6499023-.6599731-.6499023-.3590088,0-.6500244.2910156-.6500244.6499023v2.1000977h-2.0999756c-.3606567,0-.654541.2893066-.6600342.6499023.0053711.3623047.2977295.6547852.6600342.6601562h2.0999756v2.0998535c0,.3591309.2910156.6501465.6500244.6501465Z"/>
  </g>
  <path class="cls-3" d="M176.8286133,171.171875l-5.2871094-5.2871094c-1.0445557-1.0444336-2.5186768-1.3740234-3.8505859-1.0219727l-13.4616699-13.4624023c4.9365234-5.0859375,7.3662109-12.0429688,6.661377-19.1542969-1.1201172-11.3046875-10.1381836-20.3222656-21.4423828-21.4423828-7.2358398-.7148438-14.3095703,1.8027344-19.4169922,6.9111328-5.1079102,5.1074219-7.6264648,12.1845703-6.9101562,19.4169922,1.1201172,11.3046875,10.1376953,20.3222656,21.4418945,21.4414062.8100586.0800781,1.6181641.1201172,2.421875.1201172,5.151001,0,10.1166992-1.6318359,14.2272949-4.6533203l13.6503906,13.6503906c-.3520508,1.3320312-.022583,2.8066406,1.0217285,3.8505859l5.2871094,5.2871094c.78125.78125,1.8046875,1.171875,2.8286133,1.171875s2.0473633-.390625,2.8286133-1.171875c1.5620117-1.5615234,1.5620117-4.0947266,0-5.65625ZM134.9575195,154.5927734c-9.4135742-.9316406-16.9228516-8.4414062-17.855957-17.8554688-.5976562-6.0341797,1.5009766-11.9375,5.7583008-16.1943359,3.7797852-3.7802734,8.8569336-5.8583984,14.1723633-5.8583984.6704102,0,1.3457031.0322266,2.0214844.0996094,9.4140625.9326172,16.9238281,8.4423828,17.8564453,17.8564453.5976562,6.0341797-1.5009766,11.9375-5.7578125,16.1943359s-10.1601562,6.3564453-16.1948242,5.7578125Z"/>
</svg>