<svg id="Layer_1" data-name="Layer 1" xmlns="http://www.w3.org/2000/svg" xmlns:xlink="http://www.w3.org/1999/xlink" viewBox="0 0 90 90"><defs><style>.cls-1{fill:#fff;}.cls-2{fill:#2678ff;}.cls-3{fill:#8ec640;}.cls-4{opacity:0.2;}.cls-5{fill:#405c67;}.cls-6{fill:#f56b62;}.cls-7{fill:#f78982;}.cls-8{clip-path:url(#clip-path);}.cls-9{fill:#e52729;}.cls-10{fill:url(#New_Gradient_Swatch_copy_18);}.cls-11{fill:#90a4ae;}</style><clipPath id="clip-path"><path class="cls-1" d="M20.77,40.39l-8.65-8.66,3.93-3.93,4.72,4.72L31.27,22l2.35,2.35L20.77,37.24l-5.5-5.51.23-.23.42-.42.13-.13,4.72,4.72L32.06,24.38l-.79-.78L20.77,34.09l-4.72-4.72-2.36,2.36,7.08,7.09L34.42,25.18l.13.13.52.52.13.13Z"/></clipPath><linearGradient id="New_Gradient_Swatch_copy_18" x1="66.99" y1="45.25" x2="68.55" y2="49.49" gradientUnits="userSpaceOnUse"><stop offset="0.13" stop-color="#cacaca"/><stop offset="0.28" stop-color="#dbdbdb"/><stop offset="0.52" stop-color="#efefef"/><stop offset="0.76" stop-color="#fbfbfb"/><stop offset="1" stop-color="#fff"/></linearGradient></defs><path class="cls-2" d="M52.24,17.85H25.44V57.72c6.45,1.22,14.16.06,28.18-4.89L54,52.7l0,1h0l-.07,0c-.89.35-10.87,4.2-13.43,5.54a64.28,64.28,0,0,1-15.1,5.83V81h26.8a4,4,0,0,0,4-4V21.85A4,4,0,0,0,52.24,17.85Z"/><path class="cls-3" d="M45.69,35.12c1.27-.08,2.46-.8,3.72-.68A3.56,3.56,0,0,1,52.35,38a5.83,5.83,0,0,1-2.25,4.33,4.27,4.27,0,0,0-1.46,1.59,3.61,3.61,0,0,0,.08,2,8.9,8.9,0,0,1,.1,4.69,3.64,3.64,0,0,1-3.47,2.69,46.72,46.72,0,0,0-2.94-4.44,3,3,0,0,0-1.92-1.42c-1.75-.13-2.2,2.34-2.24,4.09-.07,2.57-.33,4.53-1.66,5.59-.69.56-3-1.55-3.2-1.93a39.28,39.28,0,0,0-3.28-5.1c-1.89-2-6.32.71-8,2.3S10.39,33.45,15.49,31.76c5.47-1.82,12,6.41,16.53,2.62,2.19-1.82,4.51-4.4,7.47-3.59C41.93,31.46,43,35.27,45.69,35.12Z"/><path class="cls-4" d="M42.21,56.39V17.85H38.6V57.23C39.74,57,40.94,56.72,42.21,56.39Z"/><path class="cls-4" d="M40.54,59.27l-1.94,1v6.65L25.49,74.07V81l16.72-7.57V58.49C41.52,58.79,40.93,59.06,40.54,59.27Z"/><path class="cls-5" d="M27,64.7l-1.6,7.74V81L38.6,72.14V60.24A64.49,64.49,0,0,1,27,64.7Z"/><path class="cls-6" d="M12.3,49.7a17.12,17.12,0,0,0,7.18,6.16l.37.16c5.34,2.19,10.49,2.9,18.75,1.21V9H11.79a4,4,0,0,0-4,4V38.2A31.06,31.06,0,0,0,12.3,49.7Z"/><path class="cls-7" d="M19.48,55.86a36.65,36.65,0,0,1,2.59-3.46c1.72-1.59,6.15-4.31,8-2.3a39.28,39.28,0,0,1,3.28,5.1c.2.38,2.51,2.49,3.2,1.93,1.33-1.06,1.59-3,1.66-5.59a8.81,8.81,0,0,1,.36-2.42V30.65C36.06,30.5,34,32.74,32,34.38,27.48,38.17,21,29.94,15.49,31.76c-4.71,1.56-3.8,12.14-3.19,17.94A17.12,17.12,0,0,0,19.48,55.86Z"/><path class="cls-6" d="M7.8,63.32h0v4.83a4,4,0,0,0,4,4H38.6V60.24C18.1,70.28,9.3,64.51,7.8,63.32Z"/><path class="cls-1" d="M20.77,40.39l-8.65-8.66,3.93-3.93,4.72,4.72L31.27,22l2.35,2.35L20.77,37.24l-5.5-5.51.23-.23.42-.42.13-.13,4.72,4.72L32.06,24.38l-.79-.78L20.77,34.09l-4.72-4.72-2.36,2.36,7.08,7.09L34.42,25.18l.13.13.52.52.13.13Z"/><g class="cls-8"><rect class="cls-1" x="11.76" y="27.43" width="4.3" height="8.41"/><rect class="cls-1" x="16.05" y="27.43" width="4.72" height="13.58"/><rect class="cls-1" x="20.77" y="25.38" width="4.72" height="15.64"/><rect class="cls-1" x="25.49" y="20.8" width="9.9" height="18.23"/></g><polygon class="cls-4" points="54.04 53.7 54.04 53.69 54.04 53.7 54.04 53.7"/><path class="cls-4" d="M7.8,63.32V67S17.52,74,40.89,60c2.48-1.48,12.2-5.91,13.08-6.31-.89.35-10.87,4.2-13.43,5.54C18.65,70.64,9.34,64.55,7.8,63.32Z"/><path class="cls-4" d="M54,52.68l-.36.15L54,52.7Z"/><path class="cls-1" d="M54,52.68l0,0,0,1Z"/><path class="cls-1" d="M54,53.7l-.07,0,.07,0Z"/><path class="cls-9" d="M57,52.76l-2.55,1,.66,5.45.51-.32a2.8,2.8,0,0,0,1.29-2.29Z"/><path class="cls-9" d="M56.59,51.53l-2.55,1-3.31-4.38.6-.12a2.75,2.75,0,0,1,2.51.75Z"/><path class="cls-6" d="M63.22,37.75l1.65-.67a.65.65,0,0,1,.86.36h0a.67.67,0,0,1-.36.87l-1,.38Z"/><path class="cls-6" d="M66.24,40.1l1.65-.67a.66.66,0,0,1,.86.37h0a.65.65,0,0,1-.36.86l-1,.38Z"/><path class="cls-9" d="M71.1,43.61l.09.21L65.86,46l-.09-.21-7.58-10,1-.38a1.64,1.64,0,0,1,1.65.23Z"/><path class="cls-6" d="M71.36,57.82,73,57.15a.67.67,0,0,0,.37-.86h0a.67.67,0,0,0-.87-.37l-.94.39Z"/><path class="cls-6" d="M71.88,54l1.66-.67a.67.67,0,0,0,.36-.87h0a.66.66,0,0,0-.86-.36l-.94.38Z"/><path class="cls-9" d="M72.93,48.12l-.08-.2-5.33,2.16.08.2,1.55,12.49.95-.39a1.66,1.66,0,0,0,1-1.31Z"/><path class="cls-10" d="M66.93,45.31c-7.9,3.2-13.89,6.8-13.38,8s7.31-.35,15.21-3.55l8.33-3.38c3.29-1.33,5.55-3.42,5-4.67s-3.58-1.17-6.87.17Z"/><path class="cls-11" d="M78.17,43.37a2.94,2.94,0,0,1,.1,1.79,2.17,2.17,0,0,0,.61-2.08A2.16,2.16,0,0,0,77,42,2.9,2.9,0,0,1,78.17,43.37Z"/></svg>