<svg id="Layer_1" data-name="Layer 1" xmlns="http://www.w3.org/2000/svg" viewBox="0 0 90 90"><defs><style>.cls-1{fill:#3cdad6;}.cls-2{fill:#77e5e2;}.cls-3{fill:#2678ff;}.cls-4{fill:#fff;}.cls-5{opacity:0.2;}.cls-6{fill:#ffe487;}.cls-7{fill:#ffd853;}</style></defs><path class="cls-1" d="M76.81,33.63H16.46L42.82,10.79a5.94,5.94,0,0,1,7.63,0Z"/><path class="cls-2" d="M16.46,33.63H76.81a0,0,0,0,1,0,0V57.9A12.57,12.57,0,0,1,64.24,70.47H29A12.57,12.57,0,0,1,16.46,57.9V33.63a0,0,0,0,1,0,0Z"/><rect class="cls-3" x="22.97" y="15.61" width="47.33" height="37.36" rx="3.45"/><polygon class="cls-4" points="37.19 30.55 42.1 32.96 53.14 22.95 43.7 33.74 49.84 36.75 55.16 20.8 37.19 30.55"/><polygon class="cls-4" points="43.92 37.88 45.65 35.16 43.74 34.22 43.92 37.88"/><path class="cls-5" d="M75,36.61c-1,.52-12.88,4.07-21,8.63l-1-.93a9.15,9.15,0,0,0-12.72,0l-1,.93c-8.13-4.56-20-8.11-21-8.63-1.55-.78-1.84-3-1.84-3V67.25a3.2,3.2,0,0,0,1,2.29h0l.15.13.32.26.19.1a2.47,2.47,0,0,0,.36.19,2.64,2.64,0,0,0,.3.1,2.63,2.63,0,0,0,.3.09,3.39,3.39,0,0,0,.64.06H73.59a3.39,3.39,0,0,0,.64-.06,2.8,2.8,0,0,0,.31-.09l.29-.1A2.58,2.58,0,0,0,75.2,70l.18-.1a2.78,2.78,0,0,0,.33-.27,1.49,1.49,0,0,0,.14-.12h0a3.2,3.2,0,0,0,1-2.29V33.63S76.53,35.83,75,36.61Z"/><path class="cls-6" d="M46.35,52.58V70.47H73.59a3.22,3.22,0,0,0,3.22-3.22V33.63s-.28,2.2-1.84,3S46.35,52.58,46.35,52.58Z"/><path class="cls-6" d="M46.92,52.58V70.47H19.68a3.22,3.22,0,0,1-3.22-3.22V33.63s.29,2.2,1.84,3S46.92,52.58,46.92,52.58Z"/><path class="cls-7" d="M40.28,47.4,17.42,69.54a3.18,3.18,0,0,0,2.26.93H73.59a3.18,3.18,0,0,0,2.26-.93L53,47.4A9.13,9.13,0,0,0,40.28,47.4Z"/><path class="cls-7" d="M53.58,69.58S50.3,81,37.74,81.4c0,0,5.72-4.74,5-11.82"/></svg>