<svg id="Layer_1" data-name="Layer 1" xmlns="http://www.w3.org/2000/svg" viewBox="0 0 90 90"><defs><style>.cls-1{fill:#f56b62;}.cls-2{fill:#f78982;}.cls-3,.cls-5{opacity:0.2;}.cls-4{fill:#ffd853;}.cls-6{fill:#3cdad6;}.cls-7{fill:#63e1de;}.cls-8{fill:#006cff;}</style></defs><polygon class="cls-1" points="77 63.49 32.48 63.49 32.48 9 65.38 9 77 20.61 77 63.49"/><rect class="cls-2" x="39.93" y="24.04" width="29.62" height="2.88"/><rect class="cls-2" x="39.93" y="31.95" width="29.62" height="2.88"/><rect class="cls-2" x="39.93" y="39.86" width="29.62" height="2.88"/><g class="cls-3"><polygon points="77 20.55 64.35 21.58 65.38 9 77 20.55"/></g><polygon class="cls-4" points="77 20.55 65.38 20.55 65.38 9 77 20.55"/><polygon class="cls-5" points="59.58 63.47 32.47 63.47 32.47 14.1 47.96 14.1 59.58 25.7 59.58 63.47"/><polygon class="cls-6" points="57.52 70.64 13 70.64 13 16.15 45.9 16.15 57.52 27.75 57.52 70.64"/><rect class="cls-7" x="20.03" y="32.06" width="29.62" height="2.88"/><rect class="cls-7" x="20.03" y="39.97" width="29.62" height="2.88"/><rect class="cls-7" x="20.03" y="47.88" width="29.62" height="2.88"/><g class="cls-3"><polygon points="57.52 27.7 44.87 28.73 45.9 16.15 57.52 27.7"/></g><polygon class="cls-8" points="57.52 27.7 45.9 27.7 45.9 16.15 57.52 27.7"/><path class="cls-5" d="M57.24,74.77A20.22,20.22,0,0,0,63,60.63,20.46,20.46,0,1,0,52,78.68l.27-.17c5.1,2.64,7.94,2.55,9.91,1.45C59.81,79,58.15,76.51,57.24,74.77Z"/><path class="cls-8" d="M60.49,71.83a20.22,20.22,0,0,0,5.75-14.14,20.46,20.46,0,1,0-11,18l.27-.17c5.11,2.64,7.94,2.55,9.92,1.45C63.06,76.07,61.4,73.57,60.49,71.83Z"/><path class="cls-4" d="M42,65.51h2.16l.06-11.21h-2.5V51.72h6.05l-.06,13.79h2.21v2.58H42ZM46,44.6A2.43,2.43,0,1,1,43.56,47,2.41,2.41,0,0,1,46,44.6Z"/></svg>