<svg id="Layer_1" data-name="Layer 1" xmlns="http://www.w3.org/2000/svg" viewBox="0 0 90 90"><defs><style>.cls-1{fill:#006cff;}.cls-2{fill:#3389ff;}.cls-3,.cls-8{opacity:0.2;}.cls-4{fill:none;}.cls-5{fill:#8ec640;}.cls-6{fill:#fff;}.cls-7{fill:#f56b62;}.cls-9{fill:#3cdad6;}.cls-10{fill:#add14c;}.cls-11{fill:#ffd853;}</style></defs><rect class="cls-1" x="10" y="27.85" width="63.71" height="41.43" rx="1.28"/><rect class="cls-1" x="12.32" y="30.38" width="59.07" height="33.06"/><path class="cls-2" d="M52,74.34H31.74s.52,0,1.07-1.46c.21-.55,1.34-3.69,1.34-3.69H49.56s1.11,3.09,1.36,3.69C51.49,74.25,52,74.34,52,74.34Z"/><g class="cls-3"><path d="M49.56,69.19H34.15l-.77,2.1H50.33Z"/></g><path class="cls-4" d="M52,74.31H31.74s.52,0,1.07-1.45c.21-.55,1.34-3.67,1.34-3.67H49.56s1.11,3.07,1.36,3.67C51.49,74.21,52,74.31,52,74.31Z"/><path class="cls-1" d="M53.7,74.32H30a.6.6,0,0,0-.6.6.59.59,0,0,0,.6.59H53.7a.58.58,0,0,0,.59-.59A.59.59,0,0,0,53.7,74.32Z"/><circle class="cls-2" cx="41.85" cy="66.3" r="1.44"/><path class="cls-5" d="M59.92,59H51.38a.63.63,0,0,1-.64-.64.64.64,0,0,1,.64-.65h8.54a.65.65,0,0,1,.64.65A.64.64,0,0,1,59.92,59Z"/><path class="cls-5" d="M43.2,59H19.37a.64.64,0,0,1-.65-.64.65.65,0,0,1,.65-.65H43.2a.65.65,0,0,1,.65.65A.64.64,0,0,1,43.2,59Z"/><circle class="cls-6" cx="47.29" cy="58.28" r="2.13"/><path class="cls-7" d="M48.14,58.2,47,57.52a.09.09,0,0,0-.14.08V59A.09.09,0,0,0,47,59l1.18-.68A.09.09,0,0,0,48.14,58.2Z"/><path class="cls-8" d="M77.63,28.69h0a6.75,6.75,0,0,1-6.75,6.75H64.14a6.78,6.78,0,0,0-4.78,2L58,38.77V35.44h0V28.69a6.75,6.75,0,0,1,6.75-6.75h6.12A6.75,6.75,0,0,1,77.63,28.69Z"/><path class="cls-9" d="M80,30.3h0a6.75,6.75,0,0,1-6.75,6.75H66.5a6.74,6.74,0,0,0-4.77,2l-1.35,1.35V37.05h0V30.3a6.75,6.75,0,0,1,6.75-6.75h6.12A6.75,6.75,0,0,1,80,30.3Z"/><path class="cls-6" d="M73,30.59,68.6,28.08a.34.34,0,0,0-.51.3v5a.34.34,0,0,0,.51.29L73,31.19A.35.35,0,0,0,73,30.59Z"/><path class="cls-4" d="M48.17,28.65c.07-.27.13-.53.19-.79h0Z"/><path class="cls-8" d="M52.33,37.93c-1.36-.83-3.89-1.56-6.42-2.75a12.4,12.4,0,0,0,2.88-5.08s0,0,0-.06a.45.45,0,0,0,.23-.29c.19-.64.34-1.27.47-1.89H48.36c-.06.26-.12.52-.19.79l.17-.79H28.43c.14.62.29,1.25.48,1.89a.55.55,0,0,0,.53.39l.16,0a.52.52,0,0,0,.3-.24l.1.45a1.37,1.37,0,1,0,2.67-.58l-.06-.27a14.43,14.43,0,0,0,2.54,4.3h0a2.73,2.73,0,0,0-1,.41c-3.07,1.92-6.68,2.87-8.4,4-3.45,2.17-4.06,9-4.06,9s4.4,1.81,17.44,2.16c13.24-.11,17.4-2.45,17.4-2.45S55.82,40.05,52.33,37.93Z"/><path class="cls-10" d="M55.07,40.41c-1.74-1.06-5.36-1.95-8.46-3.83a3,3,0,0,0-1-.39h-.17a5.16,5.16,0,0,1-7.49.06h-.11a3.08,3.08,0,0,0-1,.41c-3.07,1.93-6.67,2.88-8.4,4-3.44,2.17-4.06,9-4.06,9s4.4,1.82,17.44,2.16c13.24-.11,17.4-2.44,17.4-2.44S58.55,42.52,55.07,40.41Z"/><path class="cls-11" d="M49,26.54c0,4.69-3.31,11.71-7.4,11.71s-7.4-7-7.4-11.71,3.31-8.49,7.4-8.49S49,21.85,49,26.54Z"/><path class="cls-7" d="M51.23,32.56a.36.36,0,0,1-.14,0,.5.5,0,0,1-.34-.62,18.62,18.62,0,0,0,.85-5.21C51.6,20.79,47.16,16,41.7,16s-9.91,4.8-9.91,10.72a18.4,18.4,0,0,0,.87,5.21.5.5,0,0,1-1,.29,19.35,19.35,0,0,1-.91-5.5C30.79,20.24,35.68,15,41.7,15s10.9,5.25,10.9,11.72a19.57,19.57,0,0,1-.89,5.5A.5.5,0,0,1,51.23,32.56Z"/><rect class="cls-7" x="32.27" y="27.03" width="2.73" height="6.9" rx="1.36" transform="translate(-5.66 7.76) rotate(-12.15)"/><rect class="cls-7" x="48.4" y="27.03" width="2.73" height="6.9" rx="1.36" transform="translate(92 70.75) rotate(-167.85)"/><path class="cls-7" d="M32.14,23.26a1,1,0,0,1-.37-.07,1,1,0,0,1-.56-1.3,11.13,11.13,0,0,1,21,0,1,1,0,0,1-.55,1.3,1,1,0,0,1-1.3-.56,9.13,9.13,0,0,0-17.26,0A1,1,0,0,1,32.14,23.26Z"/><path class="cls-7" d="M45.48,39.39A.49.49,0,0,1,45,39a.5.5,0,0,1,.37-.61c3.71-.89,5.13-6,5.14-6.09a.5.5,0,0,1,1,.25c-.07.24-1.58,5.78-5.88,6.82Z"/><rect class="cls-7" x="41.19" y="37.66" width="4.26" height="2.75" rx="1.37"/></svg>