<?xml version="1.0" encoding="UTF-8"?>
<svg id="Layer_1" data-name="Layer 1" xmlns="http://www.w3.org/2000/svg" viewBox="0 0 104 24">
  <defs>
    <style>
      .cls-1 {
        fill: #f9b21d;
      }

      .cls-2 {
        fill: #e42527;
      }

      .cls-3 {
        fill: #226db4;
      }

      .cls-4 {
        fill: #089949;
      }
    </style>
  </defs>
  <g>
    <path class="cls-1" d="M11.2742576,22.5235481l.6109455-.6109455-4.9181113-4.918117c.3360202.3360202.3360202.8858708,0,1.2218929-.1731009.1731004-.3869326.2545603-.6109455.2545603h0c-.2240133,0-.4378441-.0814599-.6109455-.2545603l5.5290577,5.5290625c-.3360202-.3360183-.3360202-.8858708-.000001-1.2218929Z"/>
    <path class="cls-1" d="M11.8953855,13.9499379h0c.2240128,0,.4480266-.0814599.6109455-.2545613l.0101825-.0101834-.0101825.0101834c-.1731013.1731013-.3869317.2545613-.6109455.2545613Z"/>
    <path class="cls-1" d="M6.9670913,8.1764957l-.6109455.6109464,4.9282952,4.918117c.006788.006789.013576.013577.020365.020365-.0101825-.0101834-.020365-.0101834-.020365-.020365-.3360202-.3360212-.3360202-.8858717,0-1.2218929l.6109455-.6109464-4.9282947-4.9181165c.3360197.3360197.3360197.8858717-.0000005,1.2218924Z"/>
    <path class="cls-1" d="M11.2742576,17.5036082l.6109455-.6109455-4.9079297-4.9079345c-.3360202-.3360212-.8858712-.3360212-1.221891,0s-.3360202.8858717,0,1.2218929l5.5188743,5.51888c-.3360192-.3360202-.3360192-.8858708.000001-1.2218929Z"/>
    <path class="cls-1" d="M12.4961485,18.7254991c-.0509124.0509124-.1120064.1018249-.1832838.1425529.0712774-.04073.1323723-.0916405.1832838-.1425529Z"/>
    <path class="cls-3" d="M29.7451796,5.2745014c-.3360183-.3360207-.8858727-.3360207-1.221891,0l-10.8035551,10.8035642c.3360202-.3360212.8858708-.3360212,1.221891,0,.3360202.3360221.3360202.8858708,0,1.2218929l10.7933726-10.7933831c.3462027-.3462032.3462027-.8960547.0101825-1.2320739Z"/>
    <path class="cls-3" d="M18.9518069,6.0280017c.3360202.3360207.3360202.8756892.0101825,1.2117099l5.1523085-5.1523128,1.2829859,1.2829868-7.6673678,7.6775575h0c.3360202-.3360212.8858708-.3360212,1.221891,0s.3360202.8858717,0,1.2218929L27.2403008,3.9813323c.3360183-.3360207.3360183-.8858719,0-1.2218924L24.7252415.244378c-.3258377-.3258381-.8960532-.3258381-1.221891,0l-5.7734346,5.7836237-.0101825.0101825.0101825-.0101825c.3360202-.3360207.8858708-.3360207,1.221891,0Z"/>
    <path class="cls-4" d="M11.2844391,13.6953767c.0101825.0101834.020365.0101834.020365.020365.1629189.1527364.3767492.2341963.5905815.2341963.2240128,0,.4378451-.0814599.6109455-.2545613l.0101825-.0101834,6.4352934-6.4352996.0101825-.0101825c.3258377-.3360207.3258377-.8756892-.0101825-1.2117099s-.8858708-.3360207-1.221891,0l-.0101825.0101825-5.824347,5.8243546-.6109455.6109464c-.3360192.3360192-.3360192.8858717-.0000019,1.2218919Z"/>
    <path class="cls-4" d="M18.9518069,11.0479431c-.3360202-.3360212-.8858708-.3360212-1.221891,0h0l-5.8447129,5.8447177-.6109455.6109455c-.3360202.3360202-.3360202.8858708,0,1.2218929.1731013.1731004.3869326.2545603.6109455.2545603.0509124,0,.1120064-.0101825.1629189-.020365.0916424-.020365.1832838-.0509124.2647428-.1018249.061094-.04073.1221889-.0814599.1832838-.1425529l6.4454759-6.4454826h0c.3462027-.3360212.3462027-.8756902.0101825-1.221891Z"/>
    <path class="cls-4" d="M18.9518069,16.0780655c-.3360202-.3360212-.8858708-.3360212-1.221891,0l-5.8345304,5.8345371-.6109455.6109455c-.3360202.3360202-.3360202.8858708,0,1.221891.1731013.1731023.3869326.2545603.6109455.2545603.0509124,0,.1120064-.0101825.1629189-.0203669.1629189-.0305456.3156552-.1120074.4480266-.2341953l6.4454759-6.4454807h0c.3360202-.3462027.3360202-.8858708,0-1.221891Z"/>
    <path class="cls-2" d="M6.3561453,18.4709388c.2240133,0,.4480266-.0814599.610946-.2545603.3360202-.3360202.3360202-.8858708,0-1.2218929l-4.4089907-4.4089955,3.7980447-3.798049.610946-.6109464c.3360202-.3360207.3360202-.8858717,0-1.2218924s-.8858712-.3360207-1.2218914,0L.7252638,11.9745438c-.1629188.1629198-.2545606.3869326-.2545606.6109464s.0916419.4480266.2545606.6109464l5.0199361,5.0199419c.1731013.1629198.3869322.2545603.6109455.2545603h0Z"/>
  </g>
  <g>
    <path d="M37.9959362,4.8618164h4.0166016c2.4873047,0,4.5,1.0986328,4.5,3.9023438,0,3.4189453-2.9882812,3.7441406-5.8359375,3.7441406l-1.1162109-.0175781v5.2382812h-1.5644531V4.8618164ZM42.1180065,11.2514648c1.7841797,0,2.8300781-.7646484,2.8300781-2.6015625,0-1.8896484-1.0986328-2.53125-2.8300781-2.53125h-2.5576172v5.1328125h2.5576172Z"/>
    <path d="M48.657069,8.315918h1.4941406v1.6875c.6767578-1.2568359,1.6875-1.8105469,3.09375-1.8544922v1.40625c-2.0654297.0703125-3.09375.8613281-3.09375,3.0058594v5.1679688h-1.4941406v-9.4130859Z"/>
    <path d="M54.0887096,13.0444336c0-2.7949219,1.9335938-4.8955078,4.7109375-4.8955078,2.8217773,0,4.6499023,2.1621094,4.6499023,4.8515625,0,2.7773438-1.9516602,4.8867188-4.737793,4.8867188-2.8212891,0-4.6230469-2.1533203-4.6230469-4.8427734ZM61.9026744,13.0180664c0-1.9599609-1.0639648-3.6210938-3.1821289-3.6210938-2.1445312,0-3.0849609,1.6962891-3.0849609,3.6298828,0,2.0302734,1.0371094,3.6123047,3.1025391,3.6123047,2.1621094,0,3.1645508-1.7226562,3.1645508-3.6210938Z"/>
    <path d="M64.3362682,19.9086914c.9404297-.0439453,1.40625-.5361328,1.40625-1.4589844v-10.1162109h1.4941406v9.9931641c0,1.9951172-.9755859,2.7685547-2.9003906,2.8388672v-1.2568359ZM66.4632213,4.6333008c.5537109,0,.9931641.4394531.9931641.9931641s-.4394531.9931641-.9931641.9931641-.9931641-.4394531-.9931641-.9931641.4394531-.9931641.9931641-.9931641Z"/>
    <path d="M78.013026,15.5756836c-.8525391,1.5205078-2.2060547,2.3115234-3.9287109,2.3115234-2.8652344,0-4.5527344-2.1884766-4.5527344-4.8427734,0-2.6630859,1.6875-4.8955078,4.4033203-4.8955078,3.1640625,0,4.2363281,2.3554688,4.2363281,5.1679688h-7.0927734c-.0175781,1.8808594,1.0371094,3.3222656,3.0146484,3.3222656,1.0898438,0,2.0478516-.703125,2.53125-1.6523438l1.3886719.5888672ZM76.6243541,12.112793c-.0527344-1.6611328-.984375-2.7158203-2.6894531-2.7158203-1.5820312,0-2.6191406,1.2041016-2.8037109,2.7158203h5.4931641Z"/>
    <path d="M88.4632213,14.9868164c-.7294922,1.8720703-2.2763672,2.9003906-4.2714844,2.9003906-2.8828125,0-4.5175781-2.1621094-4.5175781-4.9130859,0-2.671875,1.8632812-4.8251953,4.6054688-4.8251953,1.9072266,0,3.3046875.8876953,4.1220703,2.6103516l-1.3623047.5976562c-.4130859-1.1513672-1.5732422-1.9599609-2.8828125-1.9599609-1.9863281,0-2.9355469,1.8632812-2.9355469,3.7177734,0,1.9160156,1.0107422,3.5244141,3.0761719,3.5244141,1.3886719,0,2.4609375-.9228516,2.8652344-2.2148438l1.3007812.5625Z"/>
    <path d="M94.7903698,17.6586914c-.421875.1318359-.84375.1933594-1.2919922.1933594-1.6347656,0-2.5224609-.7998047-2.5224609-2.4785156v-5.8007812h-1.3535156v-1.2568359h1.3535156v-1.7666016l1.4941406-.6503906v2.4169922h2.1972656v1.2568359h-2.1972656v5.6513672c0,.7998047.2900391,1.3710938,1.2304688,1.3710938.3339844,0,.7119141-.0703125,1.0898438-.2021484v1.265625Z"/>
    <path d="M97.356776,14.934082c.3515625,1.0810547,1.2568359,1.7050781,2.390625,1.7050781,1.0283203,0,2.109375-.3515625,2.109375-1.4765625,0-1.1337891-1.0986328-1.3974609-2.2939453-1.6875-1.4326172-.3427734-3.0058594-.7207031-3.0058594-2.671875,0-1.6611328,1.5732422-2.6542969,3.1376953-2.6542969,1.4326172,0,2.6455078.8261719,3.3310547,2.1445312l-1.1513672.5097656c-.421875-.9052734-1.2832031-1.40625-2.2324219-1.40625-.84375,0-1.6962891.3955078-1.6962891,1.3623047,0,1.0898438,1.0810547,1.3271484,2.2763672,1.5820312,1.4501953.3076172,3.0585938.6416016,3.0585938,2.6191406,0,2.0214844-1.6875,2.9267578-3.4628906,2.9267578-1.7138672,0-3.0673828-.84375-3.6123047-2.4521484l1.1513672-.5009766Z"/>
  </g>
</svg>